<svg version="1.1" viewBox="0.0 110.0 960.0 50.0" fill="none" stroke="none" stroke-linecap="square" stroke-miterlimit="10" xmlns:xlink="http://www.w3.org/1999/xlink" xmlns="http://www.w3.org/2000/svg"><clipPath id="p.0"><path d="m0 0l960.0 0l0 720.0l-960.0 0l0 -720.0z" clip-rule="nonzero"/></clipPath><g clip-path="url(#p.0)"><path fill="#000000" fill-opacity="0.0" d="m0 0l960.0 0l0 720.0l-960.0 0z" fill-rule="evenodd"/><path fill="#000000" fill-opacity="0.0" d="m0 0.06287874l720.0 -0.062992126l0 284.8504l-720.0 0.06298828z" fill-rule="evenodd"/><path fill="#ffffff" d="m52.12686 182.87476q-4.8125 4.272461E-4 -10.03125 -0.811615q-5.21875 -0.8120575 -9.921875 -2.4522705l0 -7.65625q3.390625 1.1403351 6.859375 1.8900299q3.484375 0.7340698 6.8125 1.1244049q3.328125 0.37471008 6.390625 0.37443542q10.0625 -8.69751E-4 14.875 -3.798172q4.8125 -3.8129272 4.8125 -11.078552q0 -6.171875 -3.640625 -9.421555q-3.640625 -3.2653046 -12.375 -5.5614166l-4.375 -1.1402435q-10.328125 -2.6240845 -15.46875 -7.951767q-5.140625 -5.327667 -5.140625 -14.077675q0 -10.4375 7.234375 -16.422508q7.25 -5.9850082 21.578125 -5.9862595q4.6875 -4.119873E-4 9.28125 0.62418365q4.59375 0.6246033 8.375 1.8273926l0 7.65625q-4.15625 -1.3121338 -8.5625 -1.9367523q-4.40625 -0.6246109 -8.875 -0.6242218q-6.953125 6.1035156E-4 -11.375 1.6884995q-4.421875 1.6878815 -6.5625 4.922447q-2.125 3.218933 -2.125 7.765808q0 5.953125 3.328125 9.234085q3.328125 3.28096 11.53125 5.467743l4.4375 1.0933533q7.421875 1.9056091 12.234375 4.889557q4.8125 2.968338 7.15625 7.2649994q2.359375 4.2966766 2.359375 10.140427q0 7.328125 -3.390625 12.43779q-3.390625 5.10968 -9.84375 7.8133698q-6.4375 2.7036896 -15.578125 2.704483zm41.10797 -1.0348511l0 -88.34374l8.75 -7.7056885E-4l0 35.640625l0.5 -4.5776367E-5q3.59375 -3.7659378 8.296875 -5.64135q4.703125 -1.891037 10.015625 -1.8915024q5.40625 -4.7302246E-4 9.640625 2.0460358q4.234375 2.0465012 6.640625 6.640045q2.40625 4.5935364 2.40625 12.296661l0 39.25l-8.6875 7.6293945E-4l0 -38.859375q0 -7.65625 -3.421875 -10.57782q-3.421875 -2.93721 -9.046875 -2.9367218q-2.734375 2.4414062E-4 -5.6875 0.79737854q-2.953125 0.7971344 -5.75 2.5161285q-2.78125 1.7189941 -4.90625 4.5629272l0 44.5l-8.75 7.6293945E-4zm76.85625 0.97766113q-8.359375 7.324219E-4 -13.140625 -4.3113556q-4.78125 -4.327713 -4.78125 -11.874588q0 -7.75 5.109375 -12.0941925q5.109375 -4.3598175 16.421875 -5.4545593l15.90625 -1.6888885l0.828125 5.7967987l-16.1875 1.7514191q-7.046875 0.70373535 -10.140625 3.42276q-3.078125 2.7033997 -3.078125 7.4533997q0 4.96875 2.828125 7.5934906q2.84375 2.6247559 8.484375 2.6242676q3.875 -3.5095215E-4 7.8125 -1.6569366q3.9375 -1.672226 7.046875 -5.6099854l0 -26.1875q0 -5.46875 -1.703125 -8.437363q-1.6875 -2.9842224 -5.078125 -4.1870575q-3.375 -1.2028198 -8.515625 -1.2023773q-3.34375 2.89917E-4 -7.578125 0.6100464q-4.234375 0.5941162 -8.4375 2.0163574l0 -7.15625q3.828125 -1.2659607 8.4375 -1.93824q4.625 -0.68790436 8.71875 -0.68826294q7.546875 -6.5612793E-4 12.59375 1.9676514q5.0625 1.9683075 7.609375 6.6399612q2.546875 4.671646 2.546875 12.765396l0 38.859375l-7.328125 6.4086914E-4l-0.65625 -6.609314l-0.546875 4.5776367E-5q-2.90625 3.6565094 -7.421875 5.625656q-4.5 1.9691467 -9.75 1.9696045zm41.600937 -0.98802185l0 -59.3125l7.390625 -6.4849854E-4l0.59375 6.6718216l0.609375 -4.5776367E-5q3.59375 -3.6565704 8.40625 -5.62574q4.8125 -1.9691696 10.234375 -1.9696426q5.5625 -4.8828125E-4 9.859375 2.0460129q4.296875 2.0465012 6.71875 6.6712875q2.4375 4.6091614 2.4375 12.327911l0 39.1875l-8.6875 7.6293945E-4l0 -38.8125q0 -7.65625 -3.375 -10.62471q-3.359375 -2.984085 -9.09375 -2.9835815q-2.625 2.2888184E-4 -5.578125 0.7661133q-2.953125 0.7658844 -5.765625 2.5161285q-2.8125 1.7502441 -5.0 4.6410675l0 44.5l-8.75 7.6293945E-4zm87.13751 1.0236206q-9.234375 8.087158E-4 -15.5 -3.139267q-6.25 -3.1400757 -9.421875 -9.889801q-3.171875 -6.74971 -3.171875 -17.68721q0 -10.4375 2.921875 -17.21901q2.921875 -6.7815094 8.296875 -10.047607q5.390625 -3.2817154 12.78125 -3.282364q7.265625 -6.3323975E-4 12.375 3.3114166q5.109375 3.2964325 7.78125 10.108688q2.6875 6.796646 2.6875 17.343521l0 2.6875l-42.09375 0.0036773682l0 -5.96875l35.640625 -0.003112793l-1.90625 1.3126678q0 -8.296875 -1.734375 -13.218597q-1.71875 -4.9217224 -4.96875 -7.0776978q-3.25 -2.171585 -7.890625 -2.1711807q-4.59375 4.043579E-4 -7.984375 2.1413193q-3.390625 2.1253052 -5.21875 7.047333q-1.828125 4.922043 -1.828125 13.281418l0 3.0625q0 8.203125 2.203125 13.093552q2.21875 4.8904266 6.703125 7.06192q4.484375 2.1558533 11.375 2.155243q3.375 -2.89917E-4 7.015625 -0.62561035q3.640625 -0.64094543 7.734375 -1.7819214l0 7.15625q-4.265625 1.2034912 -8.125 1.7663269q-3.84375 0.57847595 -7.671875 0.5787964zm75.59732 -1.037857l-22.796875 -80.90426l9.140625 -7.9345703E-4l21.09375 76.63877l-2.234375 1.9836426E-4l21.8125 -76.64253l10.4375 -9.0789795E-4l21.53125 76.63874l-2.015625 1.6784668E-4l21.265625 -76.64248l8.578125 -7.5531006E-4l-22.796875 80.90825l-11.59375 0.0010070801l-21.421875 -75.26374l2.296875 -2.0599365E-4l-21.65625 75.26752l-11.640625 0.0010223389zm115.88971 1.0211182q-7.65625 6.5612793E-4 -13.34375 -3.1863403q-5.671875 -3.2026215 -8.796875 -9.952362q-3.109375 -6.7497253 -3.109375 -17.51535q0 -10.65625 3.078125 -17.43776q3.09375 -6.7815247 8.78125 -9.969521q5.6875 -3.2036285 13.390625 -3.2043q7.703125 -6.713867E-4 13.390625 3.2019577q5.6875 3.1869965 8.7655945 9.936722q3.09375 6.7497406 3.09375 17.46849q0 10.65625 -3.140625 17.437775q-3.1405945 6.7815247 -8.7968445 10.000763q-5.65625 3.2192535 -13.3125 3.219925zm0 -7.09375q5.03125 -4.4250488E-4 8.6875 -2.188263q3.671875 -2.1878204 5.65625 -7.2973785q2.0 -5.109543 2.0 -13.922043q0 -8.953125 -2.0 -14.124832q-1.984375 -5.171692 -5.671875 -7.3276215q-3.6875 -2.1559296 -8.671875 -2.155487q-5.03125 4.272461E-4 -8.6875 2.1569977q-3.65625 2.1565704 -5.65625 7.2817535q-2.0 5.109543 -2.0 13.906418q0 8.90625 2.0 14.077957q2.0 5.156067 5.65625 7.3744965q3.65625 2.2184296 8.6875 2.2180023zm61.11447 7.088394q-7.65625 6.713867E-4 -13.34375 -3.186325q-5.671875 -3.2026367 -8.796875 -9.952362q-3.109375 -6.7497253 -3.109375 -17.51535q0 -10.65625 3.078125 -17.437775q3.09375 -6.781517 8.78125 -9.969513q5.6875 -3.203621 13.390625 -3.2043q7.703125 -6.713867E-4 13.390625 3.2019577q5.6875 3.1869965 8.765625 9.936729q3.09375 6.7497253 3.09375 17.468475q0 10.65625 -3.140625 17.437775q-3.140625 6.7815247 -8.796875 10.000778q-5.65625 3.2192383 -13.3125 3.2199097zm0 -7.09375q5.03125 -4.4250488E-4 8.6875 -2.188263q3.671875 -2.1878204 5.65625 -7.2973633q2.0 -5.109558 2.0 -13.922058q0 -8.953125 -2.0 -14.124817q-1.984375 -5.171707 -5.671875 -7.3276367q-3.6875 -2.1559143 -8.671875 -2.155487q-5.03125 4.4250488E-4 -8.6875 2.157013q-3.65625 2.1565704 -5.65625 7.2817383q-2.0 5.109558 -2.0 13.906433q0 8.90625 2.0 14.077942q2.0 5.156082 5.65625 7.3745117q3.65625 2.2184296 8.6875 2.217987zm59.208252 7.0885773q-6.453125 5.645752E-4 -11.765625 -2.9208527q-5.296875 -2.9214172 -8.4375 -9.374268q-3.140625 -6.4528503 -3.140625 -17.155975q0 -10.71875 3.40625 -17.765915q3.421875 -7.062805 10.09375 -10.54776q6.671875 -3.5005798 16.40625 -3.5014343q2.5 -2.2125244E-4 5.015625 0.21831512q2.515625 0.21852875 4.65625 0.546463l0 -28.875l8.75 -7.6293945E-4l0 88.34374l-7.4375 6.5612793E-4l-0.609375 -6.390564l-0.59375 4.5776367E-5q-2.625 3.218979 -6.8125 5.32872q-4.171875 2.0941162 -9.53125 2.0945892zm1.96875 -7.531433q3.984375 -3.3569336E-4 7.8125 -1.7506714q3.828125 -1.7503357 6.453125 -5.5786896l0 -38.21875q-1.96875 -0.48420715 -4.59375 -0.7496033q-2.625 -0.28102112 -5.1875 -0.28079224q-10.34375 9.0026855E-4 -15.625 5.579483q-5.265625 5.578583 -5.265625 18.312958q0 8.75 2.109375 13.702942q2.109375 4.937317 5.796875 6.9682465q3.6875 2.0153046 8.5 2.0148773zm53.668945 7.5265656q-4.46875 3.8146973E-4 -8.546875 -0.5930023q-4.078125 -0.59339905 -7.90625 -1.7961884l0 -7.0q4.375 1.3121185 8.359375 1.8898926q4.0 0.56214905 8.09375 0.5617981q7.71875 -6.866455E-4 11.1875 -2.6259918q3.46875 -2.62529 3.46875 -7.37529q0 -4.046875 -2.078125 -6.202942q-2.078125 -2.1560822 -7.046875 -3.2025146l-8.046875 -1.6399231q-8.078125 -1.7492981 -11.5625 -5.764618q-3.46875 -4.01532 -3.46875 -10.35907q0 -7.484375 5.765625 -12.313004q5.78125 -4.8442535 17.75 -4.845299q3.828125 -3.3569336E-4 7.296875 0.43685913q3.46875 0.43719482 6.6875 1.3119125l0 7.046875q-3.609375 -0.98405457 -6.921875 -1.4212646q-3.296875 -0.43721008 -6.90625 -0.43688965q-5.625 4.8828125E-4 -8.984375 1.3445282q-3.359375 1.3284149 -4.84375 3.6098022q-1.46875 2.265747 -1.46875 5.046997q0 3.5 1.96875 5.796707q1.96875 2.2967072 6.875 3.39003l8.046875 1.6399078q8.1875 1.6867828 11.765625 5.5771027q3.59375 3.8746796 3.59375 10.546555q0 8.03125 -5.875 12.703644q-5.875 4.672394 -17.203125 4.6733856z" fill-rule="nonzero"/></g></svg>