<svg version="1.1" viewBox="0.0 0.0 694.2939632545932 410.40157480314963" fill="none" stroke="none" stroke-linecap="square" stroke-miterlimit="10" xmlns:xlink="http://www.w3.org/1999/xlink" xmlns="http://www.w3.org/2000/svg"><clipPath id="p.0"><path d="m0 0l694.29395 0l0 410.40158l-694.29395 0l0 -410.40158z" clip-rule="nonzero"/></clipPath><g clip-path="url(#p.0)"><path fill="#000000" fill-opacity="0.0" d="m0 0l694.29395 0l0 410.40158l-694.29395 0z" fill-rule="evenodd"/><path fill="#000000" fill-opacity="0.0" d="m0 0.060066666l695.30707 -0.062992126l0 417.85828l-695.30707 0.06298828z" fill-rule="evenodd"/><path fill="#ffffff" d="m92.36151 242.48021q-3.984375 3.6621094E-4 -8.3125 -0.68673706q-4.328125 -0.67149353 -8.234375 -2.0305176l0 -6.34375q2.8125 0.95288086 5.6875 1.5619965q2.890625 0.6091156 5.65625 0.9369812q2.765625 0.31225586 5.296875 0.31202698q8.34375 -7.6293945E-4 12.328125 -3.1417542q3.984375 -3.156601 3.984375 -9.187851q0 -5.125 -3.015625 -7.8122253q-3.0 -2.7028503 -10.265625 -4.608444l-3.625 -0.95280457q-8.5625 -2.1710968 -12.828125 -6.5925903q-4.25 -4.4214783 -4.25 -11.671478q0 -8.65625 6.0 -13.625549q6.0 -4.9692993 17.890625 -4.9703674q3.890625 -3.5095215E-4 7.6875 0.5305481q3.8125 0.51527405 6.953125 1.5149994l0 6.34375q-3.453125 -1.0934448 -7.109375 -1.6087341q-3.640625 -0.5152893 -7.359375 -0.5149536q-5.75 5.187988E-4 -9.421875 1.4071045q-3.671875 1.4065704 -5.453125 4.0786133q-1.765625 2.6720428 -1.765625 6.437668q0 4.9375 2.765625 7.6559906q2.765625 2.7185059 9.578125 4.5303802l3.65625 0.90592957q6.171875 1.5931854 10.15625 4.061569q4.0 2.4683838 5.9375 6.030716q1.953125 3.546692 1.953125 8.406067q0 6.0625 -2.8125 10.312759q-2.8125 4.2346344 -8.15625 6.4851074q-5.34375 2.2348633 -12.921875 2.23555zm34.090057 -0.8624573l0 -73.25l7.25 -6.5612793E-4l0 29.546875l0.40625 -4.5776367E-5q3.0 -3.1252594 6.890625 -4.6881256q3.90625 -1.562851 8.296875 -1.5632477q4.484375 -3.9672852E-4 8.0 1.7024078q3.515625 1.7028046 5.5 5.5151215q2.0 3.796692 2.0 10.187317l0 32.546875l-7.203125 6.5612793E-4l0 -32.234375q0 -6.34375 -2.84375 -8.765366q-2.828125 -2.4216156 -7.484375 -2.4212036q-2.265625 2.1362305E-4 -4.71875 0.65667725q-2.453125 0.6564789 -4.765625 2.0941925q-2.3125 1.4220734 -4.078125 3.7816162l0 36.890625l-7.25 6.5612793E-4zm63.7256 0.8067169q-6.921875 6.4086914E-4 -10.890625 -3.5771332q-3.96875 -3.5777588 -3.96875 -9.827759q0 -6.4375 4.234375 -10.047256q4.234375 -3.6097717 13.625 -4.516861l13.1875 -1.4074554l0.6875 4.812439l-13.421875 1.4543457q-5.84375 0.57865906 -8.40625 2.828888q-2.5625 2.250229 -2.5625 6.187729q0 4.125 2.359375 6.2966614q2.359375 2.1716614 7.015625 2.1712341q3.21875 -2.89917E-4 6.484375 -1.3755798q3.265625 -1.3752899 5.84375 -4.641159l0 -21.71875q0 -4.53125 -1.40625 -6.9998627q-1.390625 -2.468628 -4.203125 -3.4683685q-2.8125 -0.99975586 -7.078125 -0.99935913q-2.765625 2.4414062E-4 -6.28125 0.5005646q-3.5 0.50032043 -7.0 1.6725006l0 -5.9375q3.171875 -1.0315247 7.0 -1.5943756q3.828125 -0.57847595 7.234375 -0.5787811q6.25 -5.645752E-4 10.4375 1.639679q4.203125 1.6246185 6.3125 5.49942q2.109375 3.874817 2.109375 10.577942l0 32.234375l-6.078125 5.493164E-4l-0.546875 -5.484329l-0.453125 4.5776367E-5q-2.390625 3.0314636 -6.140625 4.6724243q-3.734375 1.625351 -8.09375 1.6257324zm34.50049 -0.8156128l0 -49.1875l6.125 -5.645752E-4l0.5 5.531204l0.5 -4.5776367E-5q2.984375 -3.0315094 6.96875 -4.6568756q4.0 -1.6409912 8.484375 -1.6413879q4.625 -4.272461E-4 8.171875 1.7023773q3.5625153 1.7028046 5.5781403 5.5307465q2.015625 3.827942 2.015625 10.218567l0 32.5l-7.2031403 6.5612793E-4l0 -32.1875q0 -6.34375 -2.796875 -8.812256q-2.78125 -2.4684906 -7.53125 -2.4680634q-2.1875 1.9836426E-4 -4.640625 0.64105225q-2.4375 0.6252136 -4.78125 2.0785522q-2.328125 1.4533386 -4.140625 3.8597565l0 36.890625l-7.25 6.5612793E-4zm72.25685 0.852829q-7.65625 6.866455E-4 -12.859375 -2.5925903q-5.1875 -2.608902 -7.8125 -8.202423q-2.625 -5.609131 -2.625 -14.671631q0 -8.65625 2.421875 -14.281464q2.421875 -5.625229 6.890625 -8.344376q4.46875 -2.719162 10.578125 -2.7197113q6.03125 -5.493164E-4 10.265625 2.7490692q4.25 2.7339935 6.46875 8.374405q2.21875 5.6404266 2.21875 14.390427l0 2.234375l-34.90625 0.0031738281l0 -4.953125l29.5625 -0.0026855469l-1.59375 1.0938873q0 -6.890625 -1.4375 -10.968613q-1.421875 -4.078003 -4.125 -5.8589935q-2.6875 -1.7966461 -6.546875 -1.7962952q-3.796875 3.5095215E-4 -6.609375 1.7662354q-2.8125 1.7658691 -4.328125 5.8441315q-1.515625 4.0782623 -1.515625 11.015762l0 2.53125q0 6.8125 1.828125 10.874832q1.84375 4.0467224 5.546875 5.8432617q3.71875 1.780899 9.4375 1.7803802q2.8125 -2.4414062E-4 5.828125 -0.5161438q3.015625 -0.53152466 6.40625 -1.4849548l0 5.9375q-3.53125 1.0003204 -6.734375 1.4693604q-3.1875 0.48466492 -6.359375 0.48495483zm62.68158 -0.8650665l-18.890625 -67.0764l7.5625 -6.866455E-4l17.5 63.545288l-1.859375 1.6784668E-4l18.078125 -63.548523l8.65625 -7.7819824E-4l17.859375 63.545258l-1.671875 1.5258789E-4l17.640625 -63.548477l7.109375 -6.4086914E-4l-18.90625 67.079834l-9.609375 8.69751E-4l-17.765625 -62.420258l1.90625 -1.6784668E-4l-17.953125 62.423492l-9.65625 8.69751E-4zm96.10019 0.8506775q-6.34375 5.79834E-4 -11.0625 -2.639618q-4.71875 -2.6558228 -7.296875 -8.249344q-2.578125 -5.609146 -2.578125 -14.531021q0 -8.84375 2.5625 -14.453354q2.5625 -5.625229 7.265625 -8.281906q4.71875 -2.6566772 11.109375 -2.657257q6.390625 -5.79834E-4 11.09375 2.655243q4.71875 2.6558228 7.28125 8.249344q2.5625 5.593521 2.5625 14.484146q0 8.828125 -2.609375 14.453354q-2.59375 5.625229 -7.296875 8.297531q-4.6875 2.6723022 -11.03125 2.672882zm0 -5.890625q4.171875 -3.8146973E-4 7.203125 -1.8131561q3.046875 -1.8127747 4.6875 -6.0473022q1.65625 -4.2501526 1.65625 -11.547028q0 -7.421875 -1.65625 -11.702972q-1.640625 -4.2967224 -4.703125 -6.0776978q-3.0625 -1.7966003 -7.1875 -1.7962189q-4.171875 3.8146973E-4 -7.21875 1.7975311q-3.03125 1.7815247 -4.6875 6.0316772q-1.640625 4.2345123 -1.640625 11.531387q0 7.390625 1.640625 11.671738q1.65625 4.2810974 4.6875 6.1245728q3.046875 1.8278503 7.21875 1.8274689zm50.67691 5.886032q-6.34375 5.79834E-4 -11.0625 -2.639618q-4.71875 -2.6558228 -7.296875 -8.249344q-2.578125 -5.609146 -2.578125 -14.531021q0 -8.84375 2.5625 -14.453354q2.5625 -5.625229 7.265625 -8.281906q4.71875 -2.6566772 11.109375 -2.657257q6.390625 -5.79834E-4 11.09375 2.655243q4.71875 2.6558228 7.28125 8.249344q2.5625 5.593521 2.5625 14.484146q0 8.828125 -2.609375 14.453354q-2.59375 5.625244 -7.296875 8.297531q-4.6875 2.6723022 -11.03125 2.672882zm0 -5.890625q4.171875 -3.8146973E-4 7.203125 -1.8131561q3.046875 -1.8127747 4.6875 -6.0473022q1.65625 -4.2501373 1.65625 -11.547012q0 -7.421875 -1.65625 -11.702988q-1.640625 -4.2967224 -4.703125 -6.0776978q-3.0625 -1.7966003 -7.1875 -1.7962189q-4.171875 3.8146973E-4 -7.21875 1.7975311q-3.03125 1.7815247 -4.6875 6.0316772q-1.640625 4.2345123 -1.640625 11.531387q0 7.390625 1.640625 11.671738q1.65625 4.2810974 4.6875 6.1245728q3.046875 1.8278503 7.21875 1.8274689zm49.08313 5.8861847q-5.34375 4.7302246E-4 -9.75 -2.4210052q-4.390625 -2.421463 -7.0 -7.764984q-2.59375 -5.359146 -2.59375 -14.249771q0 -8.875 2.828125 -14.718994q2.828125 -5.8596344 8.359375 -8.750763q5.53125 -2.9067535 13.609375 -2.907486q2.078125 -1.8310547E-4 4.15625 0.18711853q2.09375 0.1716919 3.859375 0.4527893l0 -23.9375l7.25 -6.5612793E-4l0 73.25l-6.15625 5.493164E-4l-0.5 -5.296829l-0.5 4.5776367E-5q-2.171875 2.6720734 -5.640625 4.422394q-3.46875 1.7346802 -7.921875 1.7350922zm1.640625 -6.2501526q3.3125 -3.0517578E-4 6.484375 -1.4537201q3.171875 -1.4534149 5.34375 -4.625473l0 -31.6875q-1.625 -0.40611267 -3.8125 -0.6246643q-2.171875 -0.23417664 -4.296875 -0.23397827q-8.578125 7.7819824E-4 -12.953125 4.626175q-4.359375 4.6253967 -4.359375 15.187897q0 7.25 1.734375 11.359207q1.75 4.0935974 4.8125 5.7808228q3.0625 1.6715851 7.046875 1.6712341zm44.5036 6.2459717q-3.703125 3.3569336E-4 -7.09375 -0.49935913q-3.375 -0.49969482 -6.546875 -1.4994049l0 -5.796875q3.625 1.0934143 6.9375 1.5774841q3.3125 0.46846008 6.703125 0.4681549q6.390625 -5.79834E-4 9.265625 -2.1727142q2.890625 -2.1877747 2.890625 -6.1252747q0 -3.359375 -1.734375 -5.140457q-1.71875 -1.7967224 -5.84375 -2.6557312l-6.65625 -1.3587646q-6.703125 -1.4525146 -9.59375 -4.7803802q-2.875 -3.3278656 -2.875 -8.593491q0 -6.203125 4.78125 -10.219177q4.78125 -4.0160675 14.71875 -4.016968q3.171875 -2.89917E-4 6.046875 0.37445068q2.875 0.3591156 5.546875 1.0776215l0 5.84375q-2.984375 -0.81222534 -5.734375 -1.1713562q-2.734375 -0.3591156 -5.734375 -0.3588562q-4.65625 4.272461E-4 -7.453125 1.1100616q-2.78125 1.1096191 -4.015625 2.9847412q-1.21875 1.8751068 -1.21875 4.187607q0 2.90625 1.625 4.8123474q1.640625 1.9060974 5.71875 2.8119812l6.65625 1.3587799q6.8125 1.4056244 9.78125 4.624115q2.96875 3.2184753 2.96875 8.749725q0 6.65625 -4.875 10.5316925q-4.875 3.8754425 -14.265625 3.876297z" fill-rule="nonzero"/></g></svg>