<svg version="1.1" viewBox="0.0 0.0 960.0 720.0" fill="none" stroke="none" stroke-linecap="square" stroke-miterlimit="10" xmlns:xlink="http://www.w3.org/1999/xlink" xmlns="http://www.w3.org/2000/svg"><clipPath id="p.0"><path d="m0 0l960.0 0l0 720.0l-960.0 0l0 -720.0z" clip-rule="nonzero"/></clipPath><g clip-path="url(#p.0)"><path fill="#000000" fill-opacity="0.0" d="m0 0l960.0 0l0 720.0l-960.0 0z" fill-rule="evenodd"/><path fill="#efefef" d="m280.7874 360.0l0 0c0 -110.02208 89.19049 -199.2126 199.21259 -199.2126l0 0c52.834473 0 103.504944 20.988419 140.86456 58.348022c37.35962 37.359604 58.348022 88.030106 58.348022 140.86458l0 0c0 110.022095 -89.19049 199.21259 -199.21259 199.21259l0 0c-110.022095 0 -199.21259 -89.19049 -199.21259 -199.21259z" fill-rule="evenodd"/><path fill="#000000" fill-opacity="0.0" d="m293.73294 270.28223l372.53543 -0.03149414l0 179.46454l-372.53543 0.03152466z" fill-rule="evenodd"/><path fill="#000000" d="m318.57166 381.19928q-2.53125 2.1362305E-4 -5.265625 -0.43707275q-2.734375 -0.42163086 -5.203125 -1.2807922l0 -4.015625q1.78125 0.5935974 3.59375 0.9840698q1.828125 0.3904724 3.5625 0.5934448q1.75 0.20297241 3.359375 0.20285034q5.28125 -4.5776367E-4 7.796875 -1.9850464q2.53125 -2.0002136 2.53125 -5.8127136q0 -3.25 -1.90625 -4.9529724q-1.90625 -1.7029419 -6.5 -2.9057007l-2.296875 -0.5935364q-5.40625 -1.3901672 -8.109375 -4.1712036q-2.6875 -2.7966309 -2.6875 -7.390381q0 -5.46875 3.796875 -8.609711q3.796875 -3.1409302 11.3125 -3.141571q2.453125 -2.1362305E-4 4.859375 0.32769775q2.421875 0.3279419 4.390625 0.9683838l0 4.0q-2.171875 -0.6873169 -4.484375 -1.0152283q-2.3125 -0.3279419 -4.65625 -0.3277588q-3.640625 3.3569336E-4 -5.96875 0.8911438q-2.3125 0.8908081 -3.4375 2.5784302q-1.109375 1.6875916 -1.109375 4.0782166q0 3.125 1.734375 4.8435974q1.75 1.7185974 6.0625 2.8588562l2.3125 0.5779419q3.90625 0.9996643 6.421875 2.5619507q2.53125 1.5622864 3.75 3.8121643q1.234375 2.2499084 1.234375 5.3124084q0 3.84375 -1.78125 6.5314026q-1.765625 2.6720276 -5.15625 4.0941772q-3.375 1.4221802 -8.15625 1.4225769zm21.548065 -0.54870605l0 -46.328125l4.59375 -3.9672852E-4l0 18.703125l0.25 0q1.890625 -1.9845581 4.359375 -2.9691162q2.46875 -1.0002136 5.25 -1.0004578q2.828125 -2.4414062E-4 5.046875 1.0776978q2.234375 1.0779419 3.484375 3.4840698q1.265625 2.4061584 1.265625 6.4530334l0 20.578125l-4.5625 3.9672852E-4l0 -20.375q0 -4.015625 -1.796875 -5.5467224q-1.78125 -1.5311279 -4.734375 -1.5308533q-1.4375 1.2207031E-4 -2.984375 0.42211914q-1.546875 0.40637207 -3.015625 1.3127441q-1.453125 0.8907471 -2.5625 2.3908386l0 23.328125l-4.59375 3.9672852E-4zm40.29422 0.51220703q-4.375 3.9672852E-4 -6.890625 -2.2650146q-2.5 -2.2654114 -2.5 -6.2185364q0 -4.0625 2.671875 -6.343994q2.6875 -2.2814636 8.625 -2.8601074l8.328125 -0.8913269l0.4375 3.0468445l-8.484375 0.9069519q-3.703125 0.3753357 -5.328125 1.7973328q-1.609375 1.4220276 -1.609375 3.9064026q0 2.609375 1.484375 3.999878q1.5 1.3748474 4.453125 1.3746033q2.03125 -1.5258789E-4 4.09375 -0.8753357q2.0625 -0.8751831 3.703125 -2.9378052l0 -13.734375q0 -2.875 -0.890625 -4.437439q-0.890625 -1.5624084 -2.671875 -2.1872864q-1.78125 -0.6248474 -4.46875 -0.6246033q-1.75 1.5258789E-4 -3.96875 0.3128357q-2.21875 0.3126831 -4.421875 1.0628662l0 -3.765625q2.0 -0.6564026 4.421875 -1.0159912q2.421875 -0.35958862 4.578125 -0.35977173q3.953125 -3.3569336E-4 6.59375 1.0307007q2.65625 1.0310364 3.984375 3.4840393q1.34375 2.453003 1.34375 6.703003l0 20.375l-3.84375 3.3569336E-4l-0.34375 -3.4687195l-0.28125 3.0517578E-5q-1.53125 1.9219971 -3.890625 2.9534302q-2.359375 1.0314636 -5.125 1.0316772zm21.820923 -0.51745605l0 -31.09375l3.875 -3.3569336E-4l0.3125 3.4843445l0.3125 0q1.890625 -1.9220581 4.40625 -2.9535217q2.53125 -1.0314636 5.375 -1.0317078q2.921875 -2.4414062E-4 5.171875 1.0776978q2.25 1.0779419 3.515625 3.4996948q1.28125 2.4217834 1.28125 6.4686584l0 20.546875l-4.5625 3.6621094E-4l0 -20.34375q0 -4.015625 -1.765625 -5.5779724q-1.75 -1.5623474 -4.765625 -1.5620728q-1.375 9.1552734E-5 -2.921875 0.40649414q-1.546875 0.39074707 -3.03125 1.3127441q-1.46875 0.9063721 -2.609375 2.4377136l0 23.328125l-4.59375 3.9672852E-4zm45.684845 0.54299927q-4.84375 4.272461E-4 -8.125 -1.6399231q-3.28125 -1.6559753 -4.953125 -5.1870728q-1.65625 -3.546753 -1.65625 -9.281128q0 -5.484375 1.53125 -9.031372q1.546875 -3.546997 4.359375 -5.265991q2.828125 -1.7346191 6.703125 -1.7349548q3.8125 -3.0517578E-4 6.484375 1.7338257q2.6875 1.7341614 4.09375 5.3121643q1.40625 3.562378 1.40625 9.093628l0 1.40625l-22.078125 0.0018615723l0 -3.125l18.6875 -0.0015563965l-1.0 0.68756104q0 -4.359375 -0.90625 -6.9374084q-0.90625 -2.578064 -2.609375 -3.7029114q-1.703125 -1.1404724 -4.140625 -1.1402588q-2.40625 1.8310547E-4 -4.1875 1.1253357q-1.765625 1.1095276 -2.734375 3.6877441q-0.953125 2.578186 -0.953125 6.968811l0 1.609375q0 4.296875 1.15625 6.8592834q1.15625 2.5624084 3.5 3.7028198q2.359375 1.1248169 5.96875 1.1245117q1.78125 -1.5258789E-4 3.6875 -0.32843018q1.90625 -0.3283081 4.0625 -0.9222412l0 3.75q-2.25 0.6252136 -4.265625 0.9222412q-2.015625 0.3126831 -4.03125 0.3128357zm39.650146 -0.5502014l-11.953125 -42.420868l4.78125 -4.272461E-4l11.0625 40.186584l-1.171875 9.1552734E-5l11.4375 -40.188477l5.484375 -4.5776367E-4l11.2812805 40.186554l-1.0625 9.1552734E-5l11.15625 -40.188446l4.5 -3.6621094E-4l-11.953125 42.422882l-6.078125 4.8828125E-4l-11.2344055 -39.467773l1.203125 -1.2207031E-4l-11.34375 39.469727l-6.109375 5.187988E-4zm60.766205 0.5417175q-4.015625 3.3569336E-4 -7.0 -1.6712646q-2.96875 -1.6872559 -4.609375 -5.218384q-1.640625 -3.5467224 -1.640625 -9.187347q0 -5.59375 1.625 -9.140778q1.625 -3.562622 4.59375 -5.234741q2.984375 -1.6877747 7.03125 -1.6881104q4.046875 -3.3569336E-4 7.015625 1.6869202q2.984375 1.6716309 4.609375 5.2183533q1.625 3.531128 1.625 9.156128q0 5.578125 -1.65625 9.140747q-1.640625 3.5470276 -4.609375 5.2503967q-2.96875 1.6877441 -6.984375 1.6880798zm0 -3.734375q2.640625 -2.1362305E-4 4.5625 -1.1409912q1.921875 -1.1408081 2.96875 -3.8127747q1.046875 -2.687561 1.046875 -7.312561q0 -4.703125 -1.046875 -7.406189q-1.046875 -2.7030334 -2.984375 -3.8278503q-1.9375 -1.1404724 -4.546875 -1.1402588q-2.640625 2.4414062E-4 -4.5625 1.1410217q-1.921875 1.1251526 -2.96875 3.8127441q-1.046875 2.6719666 -1.046875 7.2813416q0 4.671875 1.046875 7.3905334q1.046875 2.7030334 2.96875 3.8591309q1.921875 1.1560974 4.5625 1.1558533zm32.04651 3.7316895q-4.015625 3.3569336E-4 -7.0 -1.6712952q-2.96875 -1.6872559 -4.609375 -5.2183533q-1.640625 -3.546753 -1.640625 -9.187378q0 -5.59375 1.625 -9.140747q1.625 -3.5626526 4.59375 -5.2347717q2.984375 -1.6877441 7.03125 -1.6880798q4.046875 -3.6621094E-4 7.015625 1.6868896q2.984375 1.6716309 4.609375 5.2183533q1.625 3.531128 1.625 9.156128q0 5.578125 -1.65625 9.140747q-1.640625 3.5470276 -4.609375 5.2503967q-2.96875 1.6877441 -6.984375 1.6881104zm0 -3.734375q2.640625 -2.4414062E-4 4.5625 -1.1410217q1.921875 -1.1407776 2.96875 -3.8127441q1.046875 -2.6875916 1.046875 -7.3125916q0 -4.703125 -1.046875 -7.4061584q-1.046875 -2.7030334 -2.984375 -3.8278809q-1.9375 -1.1404724 -4.546875 -1.1402283q-2.640625 2.1362305E-4 -4.5625 1.1409912q-1.921875 1.1251526 -2.96875 3.8127441q-1.046875 2.6719666 -1.046875 7.2813416q0 4.671875 1.046875 7.3905334q1.046875 2.7030334 2.96875 3.8591309q1.921875 1.1560974 4.5625 1.1558838zm31.046448 3.73172q-3.390625 3.0517578E-4 -6.171875 -1.5307007q-2.78125 -1.5310364 -4.4375 -4.905884q-1.640625 -3.390503 -1.640625 -9.015503q0 -5.625 1.796875 -9.312653q1.796875 -3.7032776 5.28125 -5.5316772q3.5 -1.8440552 8.609375 -1.8444824q1.3125 -1.2207031E-4 2.625 0.12478638q1.328125 0.10925293 2.453125 0.28103638l0 -15.140625l4.578125 -3.9672852E-4l0 46.328125l-3.890625 3.3569336E-4l-0.328125 -3.3593445l-0.3125 3.0517578E-5q-1.375 1.7032471 -3.5625 2.8128052q-2.1875 1.0939331 -5.0 1.0941467zm1.03125 -3.953186q2.09375 -1.8310547E-4 4.09375 -0.9222412q2.015625 -0.9220276 3.390625 -2.9221497l0 -20.03125q-1.03125 -0.26553345 -2.421875 -0.40603638q-1.375 -0.14053345 -2.71875 -0.14041138q-5.40625 4.5776367E-4 -8.1875 2.922577q-2.765625 2.9220886 -2.765625 9.593964q0 4.59375 1.109375 7.1874084q1.109375 2.5936584 3.03125 3.6560059q1.9375 1.0623474 4.46875 1.0621338zm28.143066 3.9507446q-2.34375 1.8310547E-4 -4.484375 -0.3277588q-2.140625 -0.3123169 -4.140625 -0.9371338l0 -3.671875q2.296875 0.6872864 4.390625 0.9996033q2.09375 0.2967224 4.234375 0.2965393q4.046875 -3.6621094E-4 5.859375 -1.3755188q1.828125 -1.3751526 1.828125 -3.8751526q0 -2.125 -1.09375 -3.2499084q-1.09375 -1.1405334 -3.703125 -1.6715393l-4.203125 -0.8590393q-4.25 -0.9215088 -6.078125 -3.0307312q-1.8125 -2.1092224 -1.8125 -5.4373474q0 -3.921875 3.015625 -6.453369q3.03125 -2.5471497 9.3125 -2.5476685q2.015625 -1.8310547E-4 3.828125 0.2340393q1.828125 0.23422241 3.515625 0.68722534l0 3.703125q-1.890625 -0.5154724 -3.625 -0.7496948q-1.734375 -0.23422241 -3.625 -0.23406982q-2.953125 2.4414062E-4 -4.71875 0.7035217q-1.765625 0.7032776 -2.546875 1.9064636q-0.765625 1.187561 -0.765625 2.640686q0 1.828125 1.03125 3.0467834q1.03125 1.2030334 3.609375 1.7653198l4.21875 0.8590088q4.296875 0.8902893 6.171875 2.9369812q1.875 2.0310974 1.875 5.5154724q0 4.21875 -3.078125 6.6721497q-3.078125 2.4533691 -9.015625 2.453888z" fill-rule="nonzero"/></g></svg>