<svg version="1.1" viewBox="0.0 0.0 722.9002624671916 287.4173228346457" fill="none" stroke="none" stroke-linecap="square" stroke-miterlimit="10" xmlns:xlink="http://www.w3.org/1999/xlink" xmlns="http://www.w3.org/2000/svg"><clipPath id="p.0"><path d="m0 0l722.90027 0l0 287.41733l-722.90027 0l0 -287.41733z" clip-rule="nonzero"/></clipPath><g clip-path="url(#p.0)"><path fill="#000000" fill-opacity="0.0" d="m0 0l722.90027 0l0 287.41733l-722.90027 0z" fill-rule="evenodd"/><path fill="#000000" fill-opacity="0.0" d="m1.6089239 0.054930445l721.2913 -0.062992126l0 287.3701l-721.2913 0.06298828z" fill-rule="evenodd"/><path fill="#000000" d="m125.7125 174.76602q-3.703125 3.2043457E-4 -7.71875 -0.6399536q-4.0 -0.62464905 -7.609375 -1.8743439l0 -5.890625q2.59375 0.8904114 5.265625 1.4526672q2.671875 0.5622711 5.234375 0.85891724q2.5625 0.29666138 4.90625 0.29644775q7.7343674 -6.713867E-4 11.421867 -2.9228668q3.703125 -2.9221954 3.703125 -8.50032q0 -4.75 -2.796875 -7.249756q-2.796875 -2.4997559 -9.515625 -4.264801l-3.3593674 -0.8747101q-7.9375 -2.014923 -11.890625 -6.1083374q-3.9375 -4.093399 -3.9375 -10.812149q0 -8.03125 5.5625 -12.625488q5.5625 -4.5942307 16.562492 -4.595192q3.625 -3.2043457E-4 7.140625 0.4837494q3.53125 0.4840622 6.4375 1.4056854l0 5.875q-3.203125 -1.0153427 -6.578125 -1.4838028q-3.375 -0.48407745 -6.828125 -0.48377228q-5.3281174 4.6539307E-4 -8.734367 1.2976379q-3.40625 1.2971725 -5.046875 3.7816849q-1.625 2.468895 -1.625 5.968895q0 4.5781174 2.5625 7.0935287q2.5625 2.515396 8.859375 4.202347l3.4062424 0.8278351q5.703125 1.4682465 9.390625 3.764801q3.703125 2.2809296 5.5 5.5776367q1.8125 3.2967224 1.8125 7.7967224q0 5.625 -2.609375 9.562729q-2.59375 3.922104 -7.546875 6.000656q-4.953125 2.0785675 -11.968742 2.0791779zm31.58355 -0.79963684l0 -67.875l6.71875 -5.874634E-4l0 27.390617l0.375 -3.0517578E-5q2.78125 -2.9064941 6.390625 -4.3442993q3.609375 -1.4534454 7.6875 -1.453804q4.15625 -3.5858154E-4 7.40625 1.5774765q3.25 1.5622253 5.09375 5.0933075q1.859375 3.5310974 1.859375 9.452972l0 30.15625l-6.671875 5.79834E-4l0 -29.859375q0 -5.875 -2.625 -8.124771q-2.625 -2.249771 -6.953125 -2.2493896q-2.109375 1.8310547E-4 -4.375 0.60975647q-2.265625 0.60957336 -4.40625 1.9378815q-2.140625 1.3126831 -3.78125 3.5003204l0 34.1875l-6.71875 5.950928E-4zm59.050934 0.7448425q-6.421875 5.645752E-4 -10.109375 -3.311615q-3.671875 -3.3121796 -3.671875 -9.109055q0 -5.96875 3.921875 -9.297226q3.9375 -3.3440857 12.625 -4.1885986l12.234375 -1.2979431l0.625 4.437439l-12.4375 1.3604736q-5.421875 0.531723 -7.796875 2.6256714q-2.359375 2.0783386 -2.359375 5.7189636q0 3.828125 2.171875 5.8435516q2.1875 2.015442 6.515625 2.0150604q2.984375 -2.593994E-4 6.0 -1.2817688q3.03125 -1.2815247 5.421875 -4.297348l0 -20.125q0 -4.203125 -1.296875 -6.484268q-1.296875 -2.296753 -3.90625 -3.2184143q-2.609375 -0.9216461 -6.546875 -0.92129517q-2.5625 2.2888184E-4 -5.828125 0.46925354q-3.25 0.45341492 -6.484375 1.5474396l0 -5.5q2.9375 -0.96899414 6.484375 -1.4849396q3.5625 -0.5315552 6.703125 -0.53182983q5.796875 -5.0354004E-4 9.671875 1.5147858q3.890625 1.499649 5.84375 5.093231q1.953125 3.5935822 1.953125 9.812332l0 29.859375l-5.625 4.8828125E-4l-0.5 -5.078079l-0.421875 3.0517578E-5q-2.21875 2.8126984 -5.6875 4.3286285q-3.46875 1.5003052 -7.5 1.5006561zm31.96318 -0.75279236l0 -45.5625l5.671875 -4.8828125E-4l0.453125 5.109329l0.46875 -4.5776367E-5q2.7656097 -2.8127441 6.4531097 -4.3130646q3.703125 -1.5159454 7.875 -1.5163116q4.28125 -3.7384033E-4 7.578125 1.5774689q3.296875 1.5622101 5.15625 5.124542q1.875 3.5467224 1.875 9.468597l0 30.109375l-6.671875 5.79834E-4l0 -29.8125q0 -5.890625 -2.59375 -8.171646q-2.578125 -2.2966614 -6.984375 -2.2962646q-2.015625 1.6784668E-4 -4.296875 0.5941162q-2.265625 0.57832336 -4.4375 1.9378967q-2.1562195 1.3439331 -3.8281097 3.5628357l0 34.1875l-6.71875 5.79834E-4zm66.941574 0.7910309q-7.09375 6.1035156E-4 -11.90625 -2.4052124q-4.8125 -2.4214478 -7.25 -7.6087494q-2.421875 -5.1872864 -2.421875 -13.593536q0 -8.015625 2.234375 -13.218933q2.25 -5.2189484 6.390625 -7.7349396q4.140625 -2.5159836 9.8125 -2.5164795q5.578125 -4.8828125E-4 9.5 2.5460358q3.9375 2.5309143 5.984375 7.765106q2.0625 5.218567 2.0625 13.327942l0 2.0625l-32.328125 0.002822876l0 -4.578125l27.375 -0.002380371l-1.46875 1.0001221q0 -6.375 -1.328125 -10.156128q-1.3125 -3.7811432 -3.8125 -5.4371643q-2.5 -1.6560364 -6.078125 -1.6557312q-3.515625 3.0517578E-4 -6.125 1.641159q-2.609375 1.6252289 -4.015625 5.406601q-1.40625 3.781372 -1.40625 10.203247l0 2.359375q0 6.296875 1.703125 10.062363q1.703125 3.7498474 5.140625 5.421417q3.453125 1.6559601 8.734375 1.6554871q2.609375 -2.2888184E-4 5.40625 -0.48484802q2.796875 -0.48461914 5.9375 -1.3755188l0 5.5q-3.28125 0.9377899 -6.25 1.3755493q-2.953125 0.4377594 -5.890625 0.4380188zm58.09494 -0.8019562l-17.515625 -62.154716l7.015625 -6.1035156E-4l16.203125 58.87359l-1.71875 1.5258789E-4l16.765625 -58.876472l8.015625 -7.019043E-4l16.546875 58.873558l-1.546875 1.373291E-4l16.328125 -58.876427l6.59375 -5.79834E-4l-17.515625 62.157784l-8.890625 7.7819824E-4l-16.46875 -57.82669l1.765625 -1.5258789E-4l-16.640625 57.829575l-8.9375 7.7819824E-4zm89.043365 0.7891083q-5.890625 5.0354004E-4 -10.265625 -2.45224q-4.359375 -2.4527435 -6.75 -7.64003q-2.390625 -5.1872864 -2.390625 -13.468536q0 -8.1875 2.359375 -13.390839q2.375 -5.2189484 6.75 -7.672455q4.375 -2.453514 10.296875 -2.454033q5.921875 -5.1116943E-4 10.28125 2.4522324q4.375 2.4527435 6.734375 7.64003q2.375 5.1873016 2.375 13.421677q0 8.1875 -2.421875 13.406464q-2.40625 5.2033234 -6.75 7.68808q-4.34375 2.4691315 -10.21875 2.4696503zm0 -5.453125q3.859375 -3.3569336E-4 6.671875 -1.6724548q2.8125 -1.6877594 4.34375 -5.6097565q1.53125 -3.9376373 1.53125 -10.703262q0 -6.890625 -1.53125 -10.859238q-1.53125 -3.968628 -4.375 -5.6246185q-2.828125 -1.6560059 -6.640625 -1.6556702q-3.875 3.3569336E-4 -6.6875 1.6568298q-2.8125 1.6564941 -4.34375 5.5941315q-1.53125 3.9220123 -1.53125 10.687637q0 6.84375 1.53125 10.812363q1.53125 3.9686127 4.34375 5.6714935q2.8125 1.7028809 6.6875 1.7025452zm46.956055 5.4490204q-5.890625 5.187988E-4 -10.265625 -2.4522247q-4.359375 -2.4527435 -6.75 -7.640045q-2.390625 -5.1872864 -2.390625 -13.468536q0 -8.1875 2.359375 -13.390823q2.375 -5.2189636 6.75 -7.67247q4.375 -2.4535065 10.296875 -2.4540253q5.9219055 -5.187988E-4 10.2812805 2.4522247q4.375 2.4527435 6.734375 7.640045q2.375 5.1872864 2.375 13.421661q0 8.1875 -2.421875 13.406464q-2.40625 5.2033386 -6.75 7.68808q-4.34375 2.4691315 -10.2187805 2.4696503zm0 -5.453125q3.8594055 -3.3569336E-4 6.6719055 -1.6724548q2.8125 -1.6877441 4.34375 -5.6097565q1.53125 -3.9376373 1.53125 -10.703262q0 -6.890625 -1.53125 -10.859238q-1.53125 -3.9686127 -4.375 -5.6246185q-2.828125 -1.6560059 -6.6406555 -1.6556702q-3.875 3.3569336E-4 -6.6875 1.6568298q-2.8125 1.6564941 -4.34375 5.5941315q-1.53125 3.9220123 -1.53125 10.687637q0 6.84375 1.53125 10.812363q1.53125 3.9686127 4.34375 5.6714935q2.8125 1.7028809 6.6875 1.7025452zm45.47171 5.4491577q-4.953125 4.272461E-4 -9.03125 -2.2492218q-4.0625 -2.2496338 -6.484375 -7.202545q-2.40625 -4.9529266 -2.40625 -13.187302q0 -8.234375 2.625 -13.640854q2.625 -5.422104 7.75 -8.110046q5.125 -2.6879501 12.59375 -2.6885986q1.9375 -1.7547607E-4 3.859375 0.17153168q1.9375 0.15608215 3.578125 0.4059372l0 -22.171875l6.71875 -5.79834E-4l0 67.875l-5.71875 5.0354004E-4l-0.453125 -4.9062195l-0.46875 4.5776367E-5q-2.015625 2.4689178 -5.234375 4.094208q-3.203125 1.6096497 -7.328125 1.6100159zm1.515625 -5.7970123q3.0625 -2.593994E-4 6.0 -1.3442688q2.953125 -1.3440094 4.96875 -4.2816925l0 -29.359375q-1.515625 -0.37486267 -3.53125 -0.5778198q-2.015625 -0.2185669 -3.984375 -0.21839905q-7.9375 7.019043E-4 -12.0 4.282303q-4.046875 4.281601 -4.046875 14.078476q0 6.71875 1.609375 10.515488q1.625 3.7967377 4.453125 5.3589783q2.84375 1.5466309 6.53125 1.5463104zm41.246216 5.793274q-3.4375 3.0517578E-4 -6.578125 -0.46817017q-3.125 -0.45285034 -6.0625 -1.3744812l0 -5.375q3.359375 0.9997101 6.421875 1.4525757q3.0625 0.43722534 6.21875 0.43695068q5.921875 -5.187988E-4 8.578125 -2.0163727q2.671875 -2.015854 2.671875 -5.672104q0 -3.109375 -1.59375 -4.7654877q-1.59375 -1.6561127 -5.40625 -2.468277l-6.1875 -1.249466q-6.203125 -1.3432007 -8.875 -4.421097q-2.671875 -3.093521 -2.671875 -7.968521q0 -5.75 4.421875 -9.469131q4.4375 -3.719139 13.640625 -3.7199402q2.9375 -2.593994E-4 5.609375 0.3432541q2.671875 0.3278885 5.140625 0.99954987l0 5.421875q-2.765625 -0.76538086 -5.3125 -1.093277q-2.53125 -0.34353638 -5.3125 -0.34329224q-4.328125 3.8146973E-4 -6.90625 1.0318604q-2.578125 1.0314636 -3.71875 2.7815704q-1.140625 1.7344666 -1.140625 3.8750916q0 2.6875 1.515625 4.453003q1.515625 1.7654877 5.296875 2.608902l6.171875 1.249466q6.296875 1.3119507 9.046875 4.2960815q2.75 2.968521 2.75 8.093521q0 6.171875 -4.515625 9.766006q-4.515625 3.5941467 -13.203125 3.5949097z" fill-rule="nonzero"/></g></svg>