<svg version="1.1" viewBox="0.0 0.0 721.2965879265092 719.997375328084" fill="none" stroke="none" stroke-linecap="square" stroke-miterlimit="10" xmlns:xlink="http://www.w3.org/1999/xlink" xmlns="http://www.w3.org/2000/svg"><clipPath id="p.0"><path d="m0 0l721.2966 0l0 719.9974l-721.2966 0l0 -719.9974z" clip-rule="nonzero"/></clipPath><g clip-path="url(#p.0)"><path fill="#000000" fill-opacity="0.0" d="m0 0l721.2966 0l0 719.9974l-721.2966 0z" fill-rule="evenodd"/><path fill="#efefef" d="m-1.08661414E-4 360.00006l0 0c0 -198.45781 160.88185 -359.33966 359.3397 -359.33966l0 0c95.302826 0 186.7023 37.85889 254.09152 105.24815c67.38928 67.38926 105.24817 158.78873 105.24817 254.09152l0 0c0 198.45782 -160.88184 359.33972 -359.3397 359.33972l0 0c-198.45782 0 -359.3397 -160.8819 -359.3397 -359.33972z" fill-rule="evenodd"/><path fill="#000000" fill-opacity="0.0" d="m23.35108 198.16713l671.97943 -0.05680847l0 323.71817l-671.97943 0.05682373z" fill-rule="evenodd"/><path fill="#000000" d="m122.79871 391.0547q-3.703125 3.0517578E-4 -7.71875 -0.6399536q-4.0 -0.6246643 -7.609375 -1.8743591l0 -5.890625q2.59375 0.89038086 5.265625 1.4526672q2.671875 0.5622864 5.234375 0.85894775q2.5625 0.29663086 4.90625 0.29644775q7.7343674 -6.4086914E-4 11.421867 -2.9228516q3.703125 -2.9221802 3.703125 -8.500305q0 -4.75 -2.796875 -7.249756q-2.796875 -2.4997559 -9.515617 -4.2648315l-3.359375 -0.8746948q-7.9375 -2.0149841 -11.890625 -6.1083984q-3.9375 -4.0934143 -3.9375 -10.812164q0 -8.03125 5.5625 -12.625458q5.5625 -4.594208 16.562492 -4.595154q3.625 -3.0517578E-4 7.140625 0.48376465q3.53125 0.48406982 6.4375 1.4057007l0 5.875q-3.203125 -1.0153503 -6.578125 -1.4837952q-3.375 -0.48410034 -6.828125 -0.48379517q-5.3281174 4.272461E-4 -8.734367 1.2976074q-3.40625 1.2971497 -5.046875 3.7816772q-1.625 2.468872 -1.625 5.968872q0 4.578125 2.5625 7.0935364q2.5625 2.5154114 8.859375 4.2023926l3.4062424 0.8278198q5.703125 1.4682617 9.390625 3.7648315q3.703125 2.2809448 5.5 5.577667q1.8125 3.2967224 1.8125 7.7967224q0 5.625 -2.609375 9.562714q-2.59375 3.9220886 -7.546875 6.000641q-4.953125 2.0785522 -11.968742 2.079132zm31.58355 -0.79953l0 -67.875l6.71875 -5.79834E-4l0 27.390625l0.375 -3.0517578E-5q2.78125 -2.9064941 6.390625 -4.3442993q3.609375 -1.4534302 7.6875 -1.4537659q4.15625 -3.3569336E-4 7.40625 1.5775146q3.25 1.5622253 5.09375 5.093292q1.859375 3.5310974 1.859375 9.452972l0 30.15625l-6.671875 5.79834E-4l0 -29.859375q0 -5.875 -2.625 -8.124786q-2.625 -2.2497864 -6.953125 -2.2494202q-2.109375 1.8310547E-4 -4.375 0.6097412q-2.265625 0.6095886 -4.40625 1.9378967q-2.140625 1.3126831 -3.78125 3.5003052l0 34.1875l-6.71875 5.79834E-4zm59.050934 0.7449951q-6.421875 5.493164E-4 -10.109375 -3.3116455q-3.671875 -3.3121948 -3.671875 -9.10907q0 -5.96875 3.921875 -9.297211q3.9375 -3.3440552 12.625 -4.188568l12.234375 -1.2978821l0.625 4.437439l-12.4375 1.3604126q-5.421875 0.53170776 -7.796875 2.6256714q-2.359375 2.078308 -2.359375 5.718933q0 3.828125 2.171875 5.843567q2.1875 2.015442 6.515625 2.0150757q2.984375 -2.4414062E-4 6.0 -1.2817383q3.03125 -1.2815247 5.421875 -4.297333l0 -20.125q0 -4.203125 -1.296875 -6.4842834q-1.296875 -2.296753 -3.90625 -3.2184143q-2.609375 -0.9216614 -6.546875 -0.9213257q-2.5625 2.1362305E-4 -5.828125 0.46923828q-3.25 0.45339966 -6.484375 1.5474243l0 -5.5q2.9375 -0.96899414 6.484375 -1.4849243q3.5625 -0.53152466 6.703125 -0.5317993q5.796875 -4.8828125E-4 9.671875 1.514801q3.890625 1.4996643 5.84375 5.0932617q1.953125 3.593567 1.953125 9.812317l0 29.859375l-5.625 4.8828125E-4l-0.5 -5.0780945l-0.421875 6.1035156E-5q-2.21875 2.812683 -5.6875 4.328583q-3.46875 1.5003052 -7.5 1.5006409zm31.96318 -0.75268555l0 -45.5625l5.671875 -4.8828125E-4l0.453125 5.1093445l0.46875 -6.1035156E-5q2.765625 -2.8127136 6.4531403 -4.3130493q3.703125 -1.5159302 7.875 -1.5162659q4.28125 -3.6621094E-4 7.578125 1.5774841q3.296875 1.5621948 5.15625 5.124542q1.8749695 3.5467224 1.8749695 9.468597l0 30.109375l-6.6718445 5.79834E-4l0 -29.8125q0 -5.890625 -2.59375 -8.171661q-2.578125 -2.2966614 -6.984375 -2.2962952q-2.015625 1.8310547E-4 -4.296875 0.5941162q-2.265625 0.5783081 -4.4375153 1.9378662q-2.15625 1.3439331 -3.828125 3.5628357l0 34.1875l-6.71875 5.79834E-4zm66.941574 0.79119873q-7.09375 6.1035156E-4 -11.90625 -2.405243q-4.8125 -2.4214783 -7.25 -7.6087646q-2.421875 -5.1872864 -2.421875 -13.593536q0 -8.015625 2.234375 -13.218933q2.25 -5.2189636 6.390625 -7.7349243q4.140625 -2.5159607 9.8125 -2.516449q5.578125 -4.8828125E-4 9.5 2.546051q3.9375 2.5309448 5.984375 7.7651367q2.0625 5.218567 2.0625 13.327942l0 2.0625l-32.328125 0.002746582l0 -4.578125l27.375 -0.002319336l-1.46875 1.0001221q0 -6.375 -1.328125 -10.156128q-1.3125 -3.7811584 -3.8125 -5.437195q-2.5 -1.6560364 -6.078125 -1.6557312q-3.515625 3.0517578E-4 -6.125 1.6411438q-2.609375 1.6252136 -4.015625 5.4065857q-1.40625 3.781372 -1.40625 10.203247l0 2.359375q0 6.296875 1.703125 10.062347q1.703125 3.749878 5.140625 5.4214478q3.453125 1.6559753 8.734375 1.6555176q2.609375 -2.1362305E-4 5.40625 -0.48483276q2.796875 -0.48461914 5.9375 -1.3755188l0 5.5q-3.28125 0.9378052 -6.25 1.3755493q-2.953125 0.43774414 -5.890625 0.43798828zm58.09494 -0.80178833l-17.515625 -62.154755l7.015625 -6.1035156E-4l16.203125 58.873627l-1.71875 1.5258789E-4l16.765625 -58.876404l8.015625 -7.019043E-4l16.546875 58.873627l-1.546875 1.2207031E-4l16.328125 -58.876373l6.59375 -5.79834E-4l-17.515625 62.157745l-8.890625 7.6293945E-4l-16.46875 -57.82675l1.765625 -1.5258789E-4l-16.640625 57.82953l-8.9375 7.6293945E-4zm89.043365 0.78933716q-5.890625 5.187988E-4 -10.265625 -2.45224q-4.359375 -2.4527588 -6.75 -7.640045q-2.390625 -5.187317 -2.390625 -13.468567q0 -8.1875 2.359375 -13.390808q2.375 -5.2189636 6.75 -7.672455q4.375 -2.4534912 10.296875 -2.45401q5.921875 -4.8828125E-4 10.28125 2.4522705q4.375 2.4527588 6.734375 7.640045q2.375 5.187317 2.375 13.421692q0 8.1875 -2.421875 13.406433q-2.40625 5.2033386 -6.75 7.68808q-4.34375 2.4691162 -10.21875 2.4696045zm0 -5.453125q3.859375 -3.0517578E-4 6.671875 -1.6724243q2.8125 -1.6877441 4.34375 -5.609741q1.53125 -3.937622 1.53125 -10.703247q0 -6.890625 -1.53125 -10.859253q-1.53125 -3.968628 -4.375 -5.624634q-2.828125 -1.6560059 -6.640625 -1.6557007q-3.875 3.3569336E-4 -6.6875 1.6568298q-2.8125 1.6564941 -4.34375 5.594116q-1.53125 3.921997 -1.53125 10.687622q0 6.84375 1.53125 10.812378q1.53125 3.968628 4.34375 5.671509q2.8125 1.7028809 6.6875 1.7025452zm46.956055 5.4491577q-5.890625 5.187988E-4 -10.265625 -2.45224q-4.359375 -2.4527588 -6.75 -7.640045q-2.390625 -5.187317 -2.390625 -13.468567q0 -8.1875 2.359375 -13.390808q2.375 -5.2189636 6.75 -7.672455q4.375 -2.4534912 10.296875 -2.45401q5.921875 -4.8828125E-4 10.28125 2.4522705q4.375 2.4527588 6.734375 7.640045q2.375 5.187317 2.375 13.421692q0 8.1875 -2.421875 13.406433q-2.40625 5.2033386 -6.75 7.68808q-4.34375 2.4691162 -10.21875 2.4696045zm0 -5.453125q3.859375 -3.0517578E-4 6.671875 -1.6724243q2.8125 -1.6877441 4.34375 -5.609741q1.53125 -3.937622 1.53125 -10.703247q0 -6.890625 -1.53125 -10.859253q-1.53125 -3.968628 -4.375 -5.624634q-2.828125 -1.6560059 -6.640625 -1.6557007q-3.875 3.3569336E-4 -6.6875 1.6568298q-2.8125 1.6564941 -4.34375 5.594116q-1.53125 3.921997 -1.53125 10.687622q0 6.84375 1.53125 10.812378q1.53125 3.968628 4.34375 5.671509q2.8125 1.7028809 6.6875 1.7025452zm45.47168 5.44928q-4.953125 4.272461E-4 -9.03125 -2.249237q-4.0625 -2.2496338 -6.484375 -7.2025757q-2.40625 -4.9529114 -2.40625 -13.187286q0 -8.234375 2.625 -13.640839q2.625 -5.4220886 7.75 -8.110046q5.125 -2.6879272 12.59375 -2.688568q1.9375 -1.5258789E-4 3.859375 0.17156982q1.9375 0.1560669 3.578125 0.40594482l0 -22.171875l6.71875 -5.79834E-4l0 67.875l-5.71875 4.8828125E-4l-0.453125 -4.9062195l-0.46875 6.1035156E-5q-2.015625 2.4689026 -5.234375 4.0941772q-3.203125 1.6096497 -7.328125 1.6099854zm1.515625 -5.796997q3.0625 -2.4414062E-4 6.0 -1.3442383q2.953125 -1.3440247 4.96875 -4.2816772l0 -29.359375q-1.515625 -0.37487793 -3.53125 -0.5778198q-2.015625 -0.21859741 -3.984375 -0.2184143q-7.9375 6.713867E-4 -12.0 4.282257q-4.046875 4.2815857 -4.046875 14.078461q0 6.71875 1.609375 10.515503q1.625 3.7967224 4.453125 5.3589783q2.84375 1.5466309 6.53125 1.5463257zm41.246155 5.793396q-3.4375 2.746582E-4 -6.578125 -0.46820068q-3.125 -0.45285034 -6.0625 -1.3744812l0 -5.375q3.359375 0.99972534 6.421875 1.4525757q3.0625 0.43725586 6.21875 0.4369812q5.921875 -4.8828125E-4 8.578125 -2.0163574q2.671875 -2.0158386 2.671875 -5.6720886q0 -3.109375 -1.59375 -4.765503q-1.59375 -1.6560974 -5.40625 -2.4682922l-6.1875 -1.2494812q-6.203125 -1.3432007 -8.875 -4.421112q-2.671875 -3.0935364 -2.671875 -7.9685364q0 -5.75 4.421875 -9.469116q4.4375 -3.7191162 13.640625 -3.7199097q2.9375 -2.4414062E-4 5.609375 0.34329224q2.671875 0.32788086 5.140625 0.99954224l0 5.421875q-2.765625 -0.76538086 -5.3125 -1.0932922q-2.53125 -0.34353638 -5.3125 -0.34329224q-4.328125 3.6621094E-4 -6.90625 1.0318298q-2.578125 1.0314636 -3.71875 2.7815552q-1.140625 1.7344971 -1.140625 3.875122q0 2.6875 1.515625 4.4529724q1.515625 1.7655029 5.296875 2.6089478l6.171875 1.2494812q6.296875 1.3119507 9.046875 4.2960815q2.75 2.9685364 2.75 8.093536q0 6.171875 -4.515625 9.765991q-4.515625 3.5941467 -13.203125 3.5948792z" fill-rule="nonzero"/></g></svg>