<svg version="1.1" viewBox="0.0 0.0 695.0341207349081 134.04199475065616" fill="none" stroke="none" stroke-linecap="square" stroke-miterlimit="10" xmlns:xlink="http://www.w3.org/1999/xlink" xmlns="http://www.w3.org/2000/svg"><clipPath id="p.0"><path d="m0 0l695.0341 0l0 134.04199l-695.0341 0l0 -134.04199z" clip-rule="nonzero"/></clipPath><g clip-path="url(#p.0)"><path fill="#000000" fill-opacity="0.0" d="m0 0l695.0341 0l0 134.04199l-695.0341 0z" fill-rule="evenodd"/><path fill="#000000" fill-opacity="0.0" d="m0 0.06016667l695.30707 -0.062992126l0 138.99213l-695.30707 0.06298828z" fill-rule="evenodd"/><path fill="#ffffff" d="m47.313293 108.96756q-4.703125 4.272461E-4 -9.796875 -0.81160736q-5.078125 -0.79641724 -9.671875 -2.3897476l0 -7.46875q3.3125 1.1246948 6.6875 1.8431396q3.390625 0.7184448 6.640625 1.0931473q3.265625 0.37471008 6.25 0.37443542q9.8125 -8.8500977E-4 14.5 -3.7044373q4.6875 -3.7191772 4.6875 -10.797302q0 -6.03125 -3.546875 -9.202805q-3.546875 -3.1715546 -12.078125 -5.4207764l-4.265625 -1.1089935q-10.078125 -2.5615845 -15.09375 -7.7642555q-5.0 -5.202671 -5.0 -13.733921q0 -10.1875 7.0625 -16.016266q7.0625 -5.844389 21.03125 -5.8456535q4.59375 -4.1770935E-4 9.0625 0.60855293q4.484375 0.60896873 8.171875 1.796135l0 7.453127q-4.0625 -1.2808838 -8.359375 -1.8898697q-4.28125 -0.6089859 -8.65625 -0.6085892q-6.78125 6.1416626E-4 -11.09375 1.6572533q-4.3125 1.6566429 -6.40625 4.797455q-2.078125 3.1408157 -2.078125 7.5783157q0 5.8125 3.25 9.015327q3.265625 3.1872063 11.265625 5.3271065l4.3125 1.0621109q7.25 1.8587189 11.9375 4.7645416q4.703125 2.9058228 6.984375 7.0931168q2.296875 4.187294 2.296875 9.890419q0 7.15625 -3.3125 12.140923q-3.296875 4.9846725 -9.59375 7.6258698q-6.28125 2.6411972 -15.1875 2.6419983zm40.09395 -1.0192566l0 -86.171875l8.53125 -7.724762E-4l0 34.765625l0.484375 -4.5776367E-5q3.515625 -3.6878166 8.09375 -5.5163574q4.59375 -1.8441658 9.78125 -1.844635q5.265625 -4.7683716E-4 9.390625 1.9991493q4.140625 1.9996262 6.484375 6.4837875q2.359375 4.4685364 2.359375 11.984158l0 38.296875l-8.484375 7.7056885E-4l0 -37.921875q0 -7.453125 -3.34375 -10.312195q-3.328125 -2.8590736 -8.8125 -2.8585777q-2.671875 2.4414062E-4 -5.546875 0.78175354q-2.875 0.7658844 -5.59375 2.4536324q-2.71875 1.6721191 -4.8125 4.45356l0 43.40625l-8.53125 7.7056885E-4zm74.97772 0.94633484q-8.15625 7.4005127E-4 -12.828125 -4.2019653q-4.65625 -4.2183228 -4.65625 -11.577698q0 -7.5625 4.984375 -11.797333q4.984375 -4.25045 16.03125 -5.3139496l15.515625 -1.6576538l0.796875 5.6561737l-15.78125 1.7045593q-6.875 0.688118 -9.890625 3.3290176q-3.015625 2.6408997 -3.015625 7.2815247q0 4.859375 2.765625 7.421623q2.78125 2.5466232 8.265625 2.5461273q3.796875 -3.4332275E-4 7.625 -1.6256943q3.84375 -1.6253433 6.890625 -5.469368l0 -25.546875q0 -5.328125 -1.65625 -8.234226q-1.65625 -2.9061012 -4.96875 -4.077675q-3.296875 -1.1715775 -8.3125 -1.1711235q-3.25 2.937317E-4 -7.390625 0.5944176q-4.125 0.57849884 -8.234375 1.9694977l0 -6.984375q3.734375 -1.2347145 8.234375 -1.8913727q4.515625 -0.6722832 8.515625 -0.67264557q7.359375 -6.67572E-4 12.28125 1.9207649q4.9375 1.9214249 7.421875 6.4837q2.484375 4.54665 2.484375 12.437275l0 37.921875l-7.15625 6.4849854E-4l-0.640625 -6.453064l-0.53125 4.5776367E-5q-2.828125 3.5783844 -7.234375 5.500656q-4.390625 1.9066467 -9.515625 1.9071121zm40.58412 -0.95680237l0 -57.859375l7.203125 -6.5231323E-4l0.59375 6.4999466l0.578125 -5.340576E-5q3.515625 -3.5628166 8.203125 -5.485119q4.703125 -1.9222984 9.984375 -1.9227791q5.4375 -4.9209595E-4 9.625 1.9991302q4.1875 1.9996185 6.5625 6.51503q2.375 4.4997826 2.375 12.015408l0 38.234375l-8.484375 7.7056885E-4l0 -37.859375q0 -7.46875 -3.28125 -10.374702q-3.28125 -2.9059525 -8.875 -2.905445q-2.5625 2.2888184E-4 -5.453125 0.7504921q-2.875 0.7502594 -5.625 2.4536362q-2.734375 1.703373 -4.875 4.5316925l0 43.40625l-8.53125 7.7056885E-4zm85.00897 1.007927q-9.015625 8.163452E-4 -15.125 -3.0611343q-6.09375 -3.077568 -9.1875 -9.655418q-3.09375 -6.5934677 -3.09375 -17.249718q0 -10.1875 2.84375 -16.797134q2.859375 -6.6252556 8.109375 -9.813232q5.25 -3.2036018 12.453125 -3.2042542q7.09375 -6.4086914E-4 12.078125 3.2332802q4.984375 3.2182999 7.59375 9.858688q2.625 6.6403847 2.625 16.921635l0 2.625l-41.0625 0.0037231445l0 -5.8125l34.765625 -0.00315094l-1.859375 1.2814178q0 -8.109375 -1.6875 -12.906097q-1.671875 -4.8123474 -4.859375 -6.9058075q-3.171875 -2.109089 -7.703125 -2.108677q-4.46875 4.043579E-4 -7.78125 2.0788307q-3.3125 2.0784225 -5.09375 6.875458q-1.78125 4.797035 -1.78125 12.96891l0 2.984375q0 8.0 2.15625 12.781059q2.15625 4.7654266 6.53125 6.874405q4.375 2.0933533 11.09375 2.0927505q3.3125 -3.0517578E-4 6.84375 -0.6100006q3.546875 -0.60969543 7.546875 -1.735054l0 6.984375q-4.15625 1.1722488 -7.921875 1.7350922q-3.75 0.5628357 -7.484375 0.563179zm73.75528 -1.0223083l-22.234375 -78.91986l8.90625 -8.068085E-4l20.578125 74.76376l-2.1875 1.9836426E-4l21.28125 -74.767555l10.1875 -9.2315674E-4l21.015625 74.76372l-1.984375 1.8310547E-4l20.75 -74.7675l8.375 -7.5912476E-4l-22.234375 78.92389l-11.3125 0.0010299683l-20.90625 -73.43561l2.234375 -2.0217896E-4l-21.109375 73.439415l-11.359375 0.0010299683zm113.059845 1.0053787q-7.46875 6.790161E-4 -13.015625 -3.1081924q-5.546875 -3.1244965 -8.59375 -9.702347q-3.03125 -6.5934753 -3.03125 -17.1091q0 -10.390625 3.0 -17.000275q3.015625 -6.625271 8.5625 -9.735149q5.546875 -3.1255035 13.078125 -3.1261864q7.515625 -6.790161E-4 13.0625 3.1238174q5.546875 3.1088715 8.546875 9.702351q3.015625 6.577854 3.015625 17.03098q0 10.40625 -3.0625 17.0159q-3.0625 6.6096573 -8.59375 9.766403q-5.515625 3.1411285 -12.96875 3.1418zm0 -6.9375q4.90625 -4.4250488E-4 8.46875 -2.125763q3.578125 -2.140953 5.515625 -7.1255035q1.953125 -4.9845505 1.953125 -13.5783q0 -8.734375 -1.953125 -13.76545q-1.9375 -5.0466995 -5.546875 -7.1557465q-3.59375 -2.1090508 -8.4375 -2.108612q-4.90625 4.4631958E-4 -8.484375 2.1101456q-3.578125 2.1096992 -5.53125 7.0942535q-1.9375 4.9845505 -1.9375 13.562675q0 8.703125 1.9375 13.749825q1.953125 5.031067 5.53125 7.1869965q3.578125 2.155922 8.484375 2.1554794zm59.620758 6.9320984q-7.46875 6.790161E-4 -13.015625 -3.1081924q-5.546875 -3.1244965 -8.59375 -9.702347q-3.0312195 -6.5934753 -3.0312195 -17.1091q0 -10.390625 2.9999695 -17.000275q3.015625 -6.625271 8.5625 -9.735149q5.546875 -3.1255035 13.078125 -3.1261864q7.515625 -6.790161E-4 13.0625 3.1238174q5.546875 3.1088753 8.546875 9.702351q3.015625 6.577854 3.015625 17.03098q0 10.40625 -3.0625 17.0159q-3.0625 6.6096573 -8.59375 9.766403q-5.515625 3.1411285 -12.96875 3.1418zm0 -6.9375q4.90625 -4.4250488E-4 8.46875 -2.125763q3.578125 -2.140953 5.515625 -7.1255035q1.953125 -4.9845505 1.953125 -13.5783q0 -8.734375 -1.953125 -13.76545q-1.9375 -5.0466995 -5.546875 -7.1557465q-3.59375 -2.1090508 -8.4375 -2.108612q-4.90625 4.4631958E-4 -8.484375 2.1101456q-3.578125 2.1096992 -5.53125 7.0942535q-1.9375 4.9845505 -1.9375 13.562675q0 8.703125 1.9375 13.749825q1.953125 5.031067 5.53125 7.1869965q3.578125 2.1559296 8.484375 2.1554794zm57.74579 6.932274q-6.296875 5.645752E-4 -11.46875 -2.8427124q-5.171875 -2.8589096 -8.234375 -9.155502q-3.0625 -6.2966003 -3.0625 -16.749725q0 -10.453125 3.328125 -17.328426q3.328125 -6.8753014 9.828125 -10.282143q6.515625 -3.4224625 16.015625 -3.4233246q2.453125 -2.2125244E-4 4.90625 0.21830368q2.453125 0.20290375 4.53125 0.5308418l0 -28.156252l8.53125 -7.724762E-4l0 86.171875l-7.25 6.5612793E-4l-0.59375 -6.2343216l-0.578125 5.340576E-5q-2.5625 3.1408615 -6.640625 5.2037277q-4.078125 2.0472412 -9.3125 2.0477219zm1.921875 -7.3595505q3.890625 -3.5095215E-4 7.625 -1.7038193q3.734375 -1.7190857 6.296875 -5.438072l0 -37.281246q-1.921875 -0.48420334 -4.484375 -0.74959564q-2.5625 -0.2653923 -5.0625 -0.26516342q-10.078125 9.1171265E-4 -15.234375 5.438877q-5.140625 5.437969 -5.140625 17.859844q0 8.546875 2.046875 13.374809q2.0625 4.812317 5.65625 6.796364q3.609375 1.9684219 8.296875 1.9680023zm52.363586 7.3546295q-4.375 3.9672852E-4 -8.34375 -0.5929947q-3.96875 -0.5777664 -7.703125 -1.7493057l0 -6.828125q4.265625 1.2808685 8.15625 1.8430176q3.890625 0.5465164 7.890625 0.54615784q7.53125 -6.790161E-4 10.90625 -2.5478668q3.390625 -2.5628052 3.390625 -7.20343q0 -3.953125 -2.03125 -6.046692q-2.015625 -2.109192 -6.875 -3.1243744l-7.84375 -1.6086655q-7.890625 -1.7024078 -11.28125 -5.6239777q-3.375 -3.9215698 -3.375 -10.093445q0 -7.3125 5.625 -12.031757q5.625 -4.719261 17.296875 -4.720318q3.734375 -3.3950806E-4 7.125 0.42123032q3.390625 0.421566 6.53125 1.2806549l0 6.875q-3.515625 -0.95280457 -6.75 -1.3743858q-3.21875 -0.43721008 -6.734375 -0.43688965q-5.5 4.9591064E-4 -8.78125 1.3132935q-3.28125 1.3127975 -4.71875 3.5316772q-1.4375 2.2032547 -1.4375 4.9220047q0 3.40625 1.921875 5.6560745q1.921875 2.2342072 6.71875 3.2962723l7.84375 1.6086578q8.0 1.6399002 11.484375 5.4364624q3.5 3.7809372 3.5 10.296562q0 7.828125 -5.734375 12.391144q-5.734375 4.563019 -16.78125 4.5640182z" fill-rule="nonzero"/></g></svg>